<svg version="1.1" xmlns="http://www.w3.org/2000/svg" xmlns:xlink="http://www.w3.org/1999/xlink" width="589.484375" height="399"><defs/><g><text fill="#eeeeee" stroke="none" font-family="Arial" font-size="24px" font-style="normal" font-weight="normal" text-decoration="none" x="0" y="0">UNREGISTERED</text><text fill="#eeeeee" stroke="none" font-family="Arial" font-size="24px" font-style="normal" font-weight="normal" text-decoration="none" x="0" y="30">UNREGISTERED</text><text fill="#eeeeee" stroke="none" font-family="Arial" font-size="24px" font-style="normal" font-weight="normal" text-decoration="none" x="0" y="60">UNREGISTERED</text><text fill="#eeeeee" stroke="none" font-family="Arial" font-size="24px" font-style="normal" font-weight="normal" text-decoration="none" x="0" y="90">UNREGISTERED</text><text fill="#eeeeee" stroke="none" font-family="Arial" font-size="24px" font-style="normal" font-weight="normal" text-decoration="none" x="0" y="120">UNREGISTERED</text><text fill="#eeeeee" stroke="none" font-family="Arial" font-size="24px" font-style="normal" font-weight="normal" text-decoration="none" x="0" y="150">UNREGISTERED</text><text fill="#eeeeee" stroke="none" font-family="Arial" font-size="24px" font-style="normal" font-weight="normal" text-decoration="none" x="0" y="180">UNREGISTERED</text><text fill="#eeeeee" stroke="none" font-family="Arial" font-size="24px" font-style="normal" font-weight="normal" text-decoration="none" x="0" y="210">UNREGISTERED</text><text fill="#eeeeee" stroke="none" font-family="Arial" font-size="24px" font-style="normal" font-weight="normal" text-decoration="none" x="0" y="240">UNREGISTERED</text><text fill="#eeeeee" stroke="none" font-family="Arial" font-size="24px" font-style="normal" font-weight="normal" text-decoration="none" x="0" y="270">UNREGISTERED</text><text fill="#eeeeee" stroke="none" font-family="Arial" font-size="24px" font-style="normal" font-weight="normal" text-decoration="none" x="0" y="300">UNREGISTERED</text><text fill="#eeeeee" stroke="none" font-family="Arial" font-size="24px" font-style="normal" font-weight="normal" text-decoration="none" x="0" y="330">UNREGISTERED</text><text fill="#eeeeee" stroke="none" font-family="Arial" font-size="24px" font-style="normal" font-weight="normal" text-decoration="none" x="0" y="360">UNREGISTERED</text><text fill="#eeeeee" stroke="none" font-family="Arial" font-size="24px" font-style="normal" font-weight="normal" text-decoration="none" x="0" y="390">UNREGISTERED</text><text fill="#eeeeee" stroke="none" font-family="Arial" font-size="24px" font-style="normal" font-weight="normal" text-decoration="none" x="200" y="0">UNREGISTERED</text><text fill="#eeeeee" stroke="none" font-family="Arial" font-size="24px" font-style="normal" font-weight="normal" text-decoration="none" x="200" y="30">UNREGISTERED</text><text fill="#eeeeee" stroke="none" font-family="Arial" font-size="24px" font-style="normal" font-weight="normal" text-decoration="none" x="200" y="60">UNREGISTERED</text><text fill="#eeeeee" stroke="none" font-family="Arial" font-size="24px" font-style="normal" font-weight="normal" text-decoration="none" x="200" y="90">UNREGISTERED</text><text fill="#eeeeee" stroke="none" font-family="Arial" font-size="24px" font-style="normal" font-weight="normal" text-decoration="none" x="200" y="120">UNREGISTERED</text><text fill="#eeeeee" stroke="none" font-family="Arial" font-size="24px" font-style="normal" font-weight="normal" text-decoration="none" x="200" y="150">UNREGISTERED</text><text fill="#eeeeee" stroke="none" font-family="Arial" font-size="24px" font-style="normal" font-weight="normal" text-decoration="none" x="200" y="180">UNREGISTERED</text><text fill="#eeeeee" stroke="none" font-family="Arial" font-size="24px" font-style="normal" font-weight="normal" text-decoration="none" x="200" y="210">UNREGISTERED</text><text fill="#eeeeee" stroke="none" font-family="Arial" font-size="24px" font-style="normal" font-weight="normal" text-decoration="none" x="200" y="240">UNREGISTERED</text><text fill="#eeeeee" stroke="none" font-family="Arial" font-size="24px" font-style="normal" font-weight="normal" text-decoration="none" x="200" y="270">UNREGISTERED</text><text fill="#eeeeee" stroke="none" font-family="Arial" font-size="24px" font-style="normal" font-weight="normal" text-decoration="none" x="200" y="300">UNREGISTERED</text><text fill="#eeeeee" stroke="none" font-family="Arial" font-size="24px" font-style="normal" font-weight="normal" text-decoration="none" x="200" y="330">UNREGISTERED</text><text fill="#eeeeee" stroke="none" font-family="Arial" font-size="24px" font-style="normal" font-weight="normal" text-decoration="none" x="200" y="360">UNREGISTERED</text><text fill="#eeeeee" stroke="none" font-family="Arial" font-size="24px" font-style="normal" font-weight="normal" text-decoration="none" x="200" y="390">UNREGISTERED</text><text fill="#eeeeee" stroke="none" font-family="Arial" font-size="24px" font-style="normal" font-weight="normal" text-decoration="none" x="400" y="0">UNREGISTERED</text><text fill="#eeeeee" stroke="none" font-family="Arial" font-size="24px" font-style="normal" font-weight="normal" text-decoration="none" x="400" y="30">UNREGISTERED</text><text fill="#eeeeee" stroke="none" font-family="Arial" font-size="24px" font-style="normal" font-weight="normal" text-decoration="none" x="400" y="60">UNREGISTERED</text><text fill="#eeeeee" stroke="none" font-family="Arial" font-size="24px" font-style="normal" font-weight="normal" text-decoration="none" x="400" y="90">UNREGISTERED</text><text fill="#eeeeee" stroke="none" font-family="Arial" font-size="24px" font-style="normal" font-weight="normal" text-decoration="none" x="400" y="120">UNREGISTERED</text><text fill="#eeeeee" stroke="none" font-family="Arial" font-size="24px" font-style="normal" font-weight="normal" text-decoration="none" x="400" y="150">UNREGISTERED</text><text fill="#eeeeee" stroke="none" font-family="Arial" font-size="24px" font-style="normal" font-weight="normal" text-decoration="none" x="400" y="180">UNREGISTERED</text><text fill="#eeeeee" stroke="none" font-family="Arial" font-size="24px" font-style="normal" font-weight="normal" text-decoration="none" x="400" y="210">UNREGISTERED</text><text fill="#eeeeee" stroke="none" font-family="Arial" font-size="24px" font-style="normal" font-weight="normal" text-decoration="none" x="400" y="240">UNREGISTERED</text><text fill="#eeeeee" stroke="none" font-family="Arial" font-size="24px" font-style="normal" font-weight="normal" text-decoration="none" x="400" y="270">UNREGISTERED</text><text fill="#eeeeee" stroke="none" font-family="Arial" font-size="24px" font-style="normal" font-weight="normal" text-decoration="none" x="400" y="300">UNREGISTERED</text><text fill="#eeeeee" stroke="none" font-family="Arial" font-size="24px" font-style="normal" font-weight="normal" text-decoration="none" x="400" y="330">UNREGISTERED</text><text fill="#eeeeee" stroke="none" font-family="Arial" font-size="24px" font-style="normal" font-weight="normal" text-decoration="none" x="400" y="360">UNREGISTERED</text><text fill="#eeeeee" stroke="none" font-family="Arial" font-size="24px" font-style="normal" font-weight="normal" text-decoration="none" x="400" y="390">UNREGISTERED</text><g transform="translate(-38,-142) scale(1,1)"><rect fill="#C0C0C0" stroke="none" x="55" y="415" width="108.1640625" height="81" opacity="0.2"/></g><g transform="translate(-38,-142) scale(1,1)"><rect fill="#ffffff" stroke="none" x="48" y="408" width="108.1640625" height="81"/></g><g transform="translate(-38,-142) scale(1,1)"><path fill="none" stroke="#000000" d="M 48 408 L 156.1640625 408 L 156.1640625 489 L 48 489 L 48 408 Z Z" stroke-miterlimit="10"/></g><g transform="translate(-38,-142) scale(1,1)"><path fill="none" stroke="#000000" d="M 48 436 L 156.1640625 436" stroke-miterlimit="10"/></g><g transform="translate(-38,-142) scale(1,1)"><path fill="none" stroke="#000000" d="M 48 446 L 156.1640625 446" stroke-miterlimit="10"/></g><g transform="translate(-38,-142) scale(1,1)"><g><path fill="none" stroke="none"/><text fill="#000000" stroke="none" font-family="Arial" font-size="16px" font-style="normal" font-weight="bold" text-decoration="none" x="82.0703125" y="430.5">Menu</text></g></g><g transform="translate(-38,-142) scale(1,1)"><g><path fill="none" stroke="none"/><text fill="#000000" stroke="none" font-family="Arial" font-size="16px" font-style="normal" font-weight="normal" text-decoration="none" x="53" y="466.5">+main()</text></g></g><g transform="translate(-38,-142) scale(1,1)"><g><path fill="none" stroke="none"/><text fill="#000000" stroke="none" font-family="Arial" font-size="16px" font-style="normal" font-weight="normal" text-decoration="none" x="53" y="484.5">+show()</text></g></g><g transform="translate(-38,-142) scale(1,1)"><rect fill="#C0C0C0" stroke="none" x="511" y="367" width="113.484375" height="171" opacity="0.2"/></g><g transform="translate(-38,-142) scale(1,1)"><rect fill="#ffffff" stroke="none" x="504" y="360" width="113.484375" height="171"/></g><g transform="translate(-38,-142) scale(1,1)"><path fill="none" stroke="#000000" d="M 504 360 L 617.484375 360 L 617.484375 531 L 504 531 L 504 360 Z Z" stroke-miterlimit="10"/></g><g transform="translate(-38,-142) scale(1,1)"><path fill="none" stroke="#000000" d="M 504 388 L 617.484375 388" stroke-miterlimit="10"/></g><g transform="translate(-38,-142) scale(1,1)"><path fill="none" stroke="#000000" d="M 504 522 L 617.484375 522" stroke-miterlimit="10"/></g><g transform="translate(-38,-142) scale(1,1)"><g><path fill="none" stroke="none"/><text fill="#000000" stroke="none" font-family="Arial" font-size="16px" font-style="normal" font-weight="bold" text-decoration="none" x="531.40234375" y="382.5">Member</text></g></g><g transform="translate(-38,-142) scale(1,1)"><g><path fill="none" stroke="none"/><text fill="#000000" stroke="none" font-family="Arial" font-size="16px" font-style="normal" font-weight="normal" text-decoration="none" x="509" y="408.5">+name</text></g></g><g transform="translate(-38,-142) scale(1,1)"><g><path fill="none" stroke="none"/><text fill="#000000" stroke="none" font-family="Arial" font-size="16px" font-style="normal" font-weight="normal" text-decoration="none" x="509" y="426.5">+userId</text></g></g><g transform="translate(-38,-142) scale(1,1)"><g><path fill="none" stroke="none"/><text fill="#000000" stroke="none" font-family="Arial" font-size="16px" font-style="normal" font-weight="normal" text-decoration="none" x="509" y="444.5">+password</text></g></g><g transform="translate(-38,-142) scale(1,1)"><g><path fill="none" stroke="none"/><text fill="#000000" stroke="none" font-family="Arial" font-size="16px" font-style="normal" font-weight="normal" text-decoration="none" x="509" y="462.5">+address</text></g></g><g transform="translate(-38,-142) scale(1,1)"><g><path fill="none" stroke="none"/><text fill="#000000" stroke="none" font-family="Arial" font-size="16px" font-style="normal" font-weight="normal" text-decoration="none" x="509" y="480.5">+juminNumber</text></g></g><g transform="translate(-38,-142) scale(1,1)"><g><path fill="none" stroke="none"/><text fill="#000000" stroke="none" font-family="Arial" font-size="16px" font-style="normal" font-weight="normal" text-decoration="none" x="509" y="498.5">+email</text></g></g><g transform="translate(-38,-142) scale(1,1)"><g><path fill="none" stroke="none"/><text fill="#000000" stroke="none" font-family="Arial" font-size="16px" font-style="normal" font-weight="normal" text-decoration="none" x="509" y="516.5">+phone</text></g></g><g transform="translate(-38,-142) scale(1,1)"><rect fill="#C0C0C0" stroke="none" x="263" y="391" width="151.7265625" height="117" opacity="0.2"/></g><g transform="translate(-38,-142) scale(1,1)"><rect fill="#ffffff" stroke="none" x="256" y="384" width="151.7265625" height="117"/></g><g transform="translate(-38,-142) scale(1,1)"><path fill="none" stroke="#000000" d="M 256 384 L 407.7265625 384 L 407.7265625 501 L 256 501 L 256 384 Z Z" stroke-miterlimit="10"/></g><g transform="translate(-38,-142) scale(1,1)"><path fill="none" stroke="#000000" d="M 256 412 L 407.7265625 412" stroke-miterlimit="10"/></g><g transform="translate(-38,-142) scale(1,1)"><path fill="none" stroke="#000000" d="M 256 422 L 407.7265625 422" stroke-miterlimit="10"/></g><g transform="translate(-38,-142) scale(1,1)"><g><path fill="none" stroke="none"/><text fill="#000000" stroke="none" font-family="Arial" font-size="16px" font-style="normal" font-weight="bold" text-decoration="none" x="287.84765625" y="406.5">JoinMember</text></g></g><g transform="translate(-38,-142) scale(1,1)"><g><path fill="none" stroke="none"/><text fill="#000000" stroke="none" font-family="Arial" font-size="16px" font-style="normal" font-weight="normal" text-decoration="none" x="261" y="442.5">+save()</text></g></g><g transform="translate(-38,-142) scale(1,1)"><g><path fill="none" stroke="none"/><text fill="#000000" stroke="none" font-family="Arial" font-size="16px" font-style="normal" font-weight="normal" text-decoration="none" x="261" y="460.5">+duplicateMember()</text></g></g><g transform="translate(-38,-142) scale(1,1)"><g><path fill="none" stroke="none"/><text fill="#000000" stroke="none" font-family="Arial" font-size="16px" font-style="normal" font-weight="normal" text-decoration="none" x="261" y="478.5">+validUserId()</text></g></g><g transform="translate(-38,-142) scale(1,1)"><g><path fill="none" stroke="none"/><text fill="#000000" stroke="none" font-family="Arial" font-size="16px" font-style="normal" font-weight="normal" text-decoration="none" x="261" y="496.5">+validPassword()</text></g></g><g transform="translate(-38,-142) scale(1,1)"><path fill="none" stroke="#000000" d="M 503 444 L 409 443" stroke-miterlimit="10"/></g><g transform="translate(-38,-142) scale(1,1)"><path fill="#FFFFFF" stroke="none" d="M 419.2068794042231 438.89882787149264 L 409 443 L 419.11732026436033 447.31738701859865 L 430.99875519846 443.2340293106219"/></g><g transform="translate(-38,-142) scale(1,1)"><path fill="none" stroke="#000000" d="M 419.2068794042231 438.89882787149264 L 409 443 L 419.11732026436033 447.31738701859865 L 430.99875519846 443.2340293106219 L 419.2068794042231 438.89882787149264" stroke-miterlimit="10"/></g><g transform="translate(-38,-142) scale(1,1)"><path fill="none" stroke="#000000" d="M 157 447 L 255 444" stroke-miterlimit="10"/></g><g transform="translate(-38,-142) scale(1,1)"><path fill="none" stroke="#000000" d="M 244.9708860196099 448.51850337704246 L 255 444 L 244.71328111645232 440.1034098738944" stroke-miterlimit="10"/></g><g transform="translate(-38,-142) scale(1,1)"><rect fill="#C0C0C0" stroke="none" x="511" y="159" width="86.828125" height="99" opacity="0.2"/></g><g transform="translate(-38,-142) scale(1,1)"><rect fill="#ffffff" stroke="none" x="504" y="152" width="86.828125" height="99"/></g><g transform="translate(-38,-142) scale(1,1)"><path fill="none" stroke="#000000" d="M 504 152 L 590.828125 152 L 590.828125 251 L 504 251 L 504 152 Z Z" stroke-miterlimit="10"/></g><g transform="translate(-38,-142) scale(1,1)"><path fill="none" stroke="#000000" d="M 504 180 L 590.828125 180" stroke-miterlimit="10"/></g><g transform="translate(-38,-142) scale(1,1)"><path fill="none" stroke="#000000" d="M 504 242 L 590.828125 242" stroke-miterlimit="10"/></g><g transform="translate(-38,-142) scale(1,1)"><g><path fill="none" stroke="none"/><text fill="#000000" stroke="none" font-family="Arial" font-size="16px" font-style="italic" font-weight="bold" text-decoration="none" x="531.21875" y="174.5">User</text></g></g><g transform="translate(-38,-142) scale(1,1)"><g><path fill="none" stroke="none"/><text fill="#000000" stroke="none" font-family="Arial" font-size="16px" font-style="normal" font-weight="normal" text-decoration="none" x="509" y="200.5">+name</text></g></g><g transform="translate(-38,-142) scale(1,1)"><g><path fill="none" stroke="none"/><text fill="#000000" stroke="none" font-family="Arial" font-size="16px" font-style="normal" font-weight="normal" text-decoration="none" x="509" y="218.5">+address</text></g></g><g transform="translate(-38,-142) scale(1,1)"><g><path fill="none" stroke="none"/><text fill="#000000" stroke="none" font-family="Arial" font-size="16px" font-style="normal" font-weight="normal" text-decoration="none" x="509" y="236.5">+email</text></g></g><g transform="translate(-38,-142) scale(1,1)"><path fill="none" stroke="#000000" d="M 555 359 L 550 252" stroke-miterlimit="10"/></g><g transform="translate(-38,-142) scale(1,1)"><path fill="#FFFFFF" stroke="none" d="M 559.3586060695353 271.91021075818276 L 550 252 L 542.5388887722577 272.6961788561864"/></g><g transform="translate(-38,-142) scale(1,1)"><path fill="none" stroke="#000000" d="M 559.3586060695353 271.91021075818276 L 550 252 L 542.5388887722577 272.6961788561864 L 559.3586060695353 271.91021075818276" stroke-miterlimit="10"/></g></g></svg>