<svg version="1.1" xmlns="http://www.w3.org/2000/svg" xmlns:xlink="http://www.w3.org/1999/xlink" width="561" height="494"><defs/><g><text fill="#eeeeee" stroke="none" font-family="Arial" font-size="24px" font-style="normal" font-weight="normal" text-decoration="none" x="0" y="0">UNREGISTERED</text><text fill="#eeeeee" stroke="none" font-family="Arial" font-size="24px" font-style="normal" font-weight="normal" text-decoration="none" x="0" y="30">UNREGISTERED</text><text fill="#eeeeee" stroke="none" font-family="Arial" font-size="24px" font-style="normal" font-weight="normal" text-decoration="none" x="0" y="60">UNREGISTERED</text><text fill="#eeeeee" stroke="none" font-family="Arial" font-size="24px" font-style="normal" font-weight="normal" text-decoration="none" x="0" y="90">UNREGISTERED</text><text fill="#eeeeee" stroke="none" font-family="Arial" font-size="24px" font-style="normal" font-weight="normal" text-decoration="none" x="0" y="120">UNREGISTERED</text><text fill="#eeeeee" stroke="none" font-family="Arial" font-size="24px" font-style="normal" font-weight="normal" text-decoration="none" x="0" y="150">UNREGISTERED</text><text fill="#eeeeee" stroke="none" font-family="Arial" font-size="24px" font-style="normal" font-weight="normal" text-decoration="none" x="0" y="180">UNREGISTERED</text><text fill="#eeeeee" stroke="none" font-family="Arial" font-size="24px" font-style="normal" font-weight="normal" text-decoration="none" x="0" y="210">UNREGISTERED</text><text fill="#eeeeee" stroke="none" font-family="Arial" font-size="24px" font-style="normal" font-weight="normal" text-decoration="none" x="0" y="240">UNREGISTERED</text><text fill="#eeeeee" stroke="none" font-family="Arial" font-size="24px" font-style="normal" font-weight="normal" text-decoration="none" x="0" y="270">UNREGISTERED</text><text fill="#eeeeee" stroke="none" font-family="Arial" font-size="24px" font-style="normal" font-weight="normal" text-decoration="none" x="0" y="300">UNREGISTERED</text><text fill="#eeeeee" stroke="none" font-family="Arial" font-size="24px" font-style="normal" font-weight="normal" text-decoration="none" x="0" y="330">UNREGISTERED</text><text fill="#eeeeee" stroke="none" font-family="Arial" font-size="24px" font-style="normal" font-weight="normal" text-decoration="none" x="0" y="360">UNREGISTERED</text><text fill="#eeeeee" stroke="none" font-family="Arial" font-size="24px" font-style="normal" font-weight="normal" text-decoration="none" x="0" y="390">UNREGISTERED</text><text fill="#eeeeee" stroke="none" font-family="Arial" font-size="24px" font-style="normal" font-weight="normal" text-decoration="none" x="0" y="420">UNREGISTERED</text><text fill="#eeeeee" stroke="none" font-family="Arial" font-size="24px" font-style="normal" font-weight="normal" text-decoration="none" x="0" y="450">UNREGISTERED</text><text fill="#eeeeee" stroke="none" font-family="Arial" font-size="24px" font-style="normal" font-weight="normal" text-decoration="none" x="0" y="480">UNREGISTERED</text><text fill="#eeeeee" stroke="none" font-family="Arial" font-size="24px" font-style="normal" font-weight="normal" text-decoration="none" x="200" y="0">UNREGISTERED</text><text fill="#eeeeee" stroke="none" font-family="Arial" font-size="24px" font-style="normal" font-weight="normal" text-decoration="none" x="200" y="30">UNREGISTERED</text><text fill="#eeeeee" stroke="none" font-family="Arial" font-size="24px" font-style="normal" font-weight="normal" text-decoration="none" x="200" y="60">UNREGISTERED</text><text fill="#eeeeee" stroke="none" font-family="Arial" font-size="24px" font-style="normal" font-weight="normal" text-decoration="none" x="200" y="90">UNREGISTERED</text><text fill="#eeeeee" stroke="none" font-family="Arial" font-size="24px" font-style="normal" font-weight="normal" text-decoration="none" x="200" y="120">UNREGISTERED</text><text fill="#eeeeee" stroke="none" font-family="Arial" font-size="24px" font-style="normal" font-weight="normal" text-decoration="none" x="200" y="150">UNREGISTERED</text><text fill="#eeeeee" stroke="none" font-family="Arial" font-size="24px" font-style="normal" font-weight="normal" text-decoration="none" x="200" y="180">UNREGISTERED</text><text fill="#eeeeee" stroke="none" font-family="Arial" font-size="24px" font-style="normal" font-weight="normal" text-decoration="none" x="200" y="210">UNREGISTERED</text><text fill="#eeeeee" stroke="none" font-family="Arial" font-size="24px" font-style="normal" font-weight="normal" text-decoration="none" x="200" y="240">UNREGISTERED</text><text fill="#eeeeee" stroke="none" font-family="Arial" font-size="24px" font-style="normal" font-weight="normal" text-decoration="none" x="200" y="270">UNREGISTERED</text><text fill="#eeeeee" stroke="none" font-family="Arial" font-size="24px" font-style="normal" font-weight="normal" text-decoration="none" x="200" y="300">UNREGISTERED</text><text fill="#eeeeee" stroke="none" font-family="Arial" font-size="24px" font-style="normal" font-weight="normal" text-decoration="none" x="200" y="330">UNREGISTERED</text><text fill="#eeeeee" stroke="none" font-family="Arial" font-size="24px" font-style="normal" font-weight="normal" text-decoration="none" x="200" y="360">UNREGISTERED</text><text fill="#eeeeee" stroke="none" font-family="Arial" font-size="24px" font-style="normal" font-weight="normal" text-decoration="none" x="200" y="390">UNREGISTERED</text><text fill="#eeeeee" stroke="none" font-family="Arial" font-size="24px" font-style="normal" font-weight="normal" text-decoration="none" x="200" y="420">UNREGISTERED</text><text fill="#eeeeee" stroke="none" font-family="Arial" font-size="24px" font-style="normal" font-weight="normal" text-decoration="none" x="200" y="450">UNREGISTERED</text><text fill="#eeeeee" stroke="none" font-family="Arial" font-size="24px" font-style="normal" font-weight="normal" text-decoration="none" x="200" y="480">UNREGISTERED</text><text fill="#eeeeee" stroke="none" font-family="Arial" font-size="24px" font-style="normal" font-weight="normal" text-decoration="none" x="400" y="0">UNREGISTERED</text><text fill="#eeeeee" stroke="none" font-family="Arial" font-size="24px" font-style="normal" font-weight="normal" text-decoration="none" x="400" y="30">UNREGISTERED</text><text fill="#eeeeee" stroke="none" font-family="Arial" font-size="24px" font-style="normal" font-weight="normal" text-decoration="none" x="400" y="60">UNREGISTERED</text><text fill="#eeeeee" stroke="none" font-family="Arial" font-size="24px" font-style="normal" font-weight="normal" text-decoration="none" x="400" y="90">UNREGISTERED</text><text fill="#eeeeee" stroke="none" font-family="Arial" font-size="24px" font-style="normal" font-weight="normal" text-decoration="none" x="400" y="120">UNREGISTERED</text><text fill="#eeeeee" stroke="none" font-family="Arial" font-size="24px" font-style="normal" font-weight="normal" text-decoration="none" x="400" y="150">UNREGISTERED</text><text fill="#eeeeee" stroke="none" font-family="Arial" font-size="24px" font-style="normal" font-weight="normal" text-decoration="none" x="400" y="180">UNREGISTERED</text><text fill="#eeeeee" stroke="none" font-family="Arial" font-size="24px" font-style="normal" font-weight="normal" text-decoration="none" x="400" y="210">UNREGISTERED</text><text fill="#eeeeee" stroke="none" font-family="Arial" font-size="24px" font-style="normal" font-weight="normal" text-decoration="none" x="400" y="240">UNREGISTERED</text><text fill="#eeeeee" stroke="none" font-family="Arial" font-size="24px" font-style="normal" font-weight="normal" text-decoration="none" x="400" y="270">UNREGISTERED</text><text fill="#eeeeee" stroke="none" font-family="Arial" font-size="24px" font-style="normal" font-weight="normal" text-decoration="none" x="400" y="300">UNREGISTERED</text><text fill="#eeeeee" stroke="none" font-family="Arial" font-size="24px" font-style="normal" font-weight="normal" text-decoration="none" x="400" y="330">UNREGISTERED</text><text fill="#eeeeee" stroke="none" font-family="Arial" font-size="24px" font-style="normal" font-weight="normal" text-decoration="none" x="400" y="360">UNREGISTERED</text><text fill="#eeeeee" stroke="none" font-family="Arial" font-size="24px" font-style="normal" font-weight="normal" text-decoration="none" x="400" y="390">UNREGISTERED</text><text fill="#eeeeee" stroke="none" font-family="Arial" font-size="24px" font-style="normal" font-weight="normal" text-decoration="none" x="400" y="420">UNREGISTERED</text><text fill="#eeeeee" stroke="none" font-family="Arial" font-size="24px" font-style="normal" font-weight="normal" text-decoration="none" x="400" y="450">UNREGISTERED</text><text fill="#eeeeee" stroke="none" font-family="Arial" font-size="24px" font-style="normal" font-weight="normal" text-decoration="none" x="400" y="480">UNREGISTERED</text><g transform="translate(-86,-94) scale(1,1)"><path fill="#ffffff" stroke="none" d="M 112.40935031960228 353.68 C 112.40935031960228 348.886167936 116.29519264454774 345 121.088623046875 345 C 125.88205344920226 345 129.76789577414772 348.886167936 129.76789577414772 353.68 C 129.76789577414772 358.473832064 125.88205344920226 362.36 121.088623046875 362.36 C 116.29519264454774 362.36 112.40935031960228 358.473832064 112.40935031960228 353.68 Z"/></g><g transform="translate(-86,-94) scale(1,1)"><path fill="none" stroke="#000000" d="M 112.40935031960228 353.68 C 112.40935031960228 348.886167936 116.29519264454774 345 121.088623046875 345 C 125.88205344920226 345 129.76789577414772 348.886167936 129.76789577414772 353.68 C 129.76789577414772 358.473832064 125.88205344920226 362.36 121.088623046875 362.36 C 116.29519264454774 362.36 112.40935031960228 358.473832064 112.40935031960228 353.68 Z" stroke-miterlimit="10"/></g><g transform="translate(-86,-94) scale(1,1)"><path fill="none" stroke="#000000" d="M 121.088623046875 362.36 L 121.088623046875 379.64" stroke-miterlimit="10"/></g><g transform="translate(-86,-94) scale(1,1)"><path fill="none" stroke="#000000" d="M 111.89880486505683 368.84 L 130.27844122869317 368.84" stroke-miterlimit="10"/></g><g transform="translate(-86,-94) scale(1,1)"><path fill="none" stroke="#000000" d="M 121.088623046875 379.64 L 108.32498668323865 397" stroke-miterlimit="10"/></g><g transform="translate(-86,-94) scale(1,1)"><path fill="none" stroke="#000000" d="M 121.088623046875 379.64 L 133.85225941051135 397" stroke-miterlimit="10"/></g><g transform="translate(-86,-94) scale(1,1)"><g><path fill="none" stroke="none"/><text fill="#000000" stroke="none" font-family="Arial" font-size="13px" font-style="normal" font-weight="bold" text-decoration="none" x="101.588623046875" y="417.5">사용자</text></g></g><g transform="translate(-86,-94) scale(1,1)"><path fill="#C0C0C0" stroke="none" d="M 303 256 C 303 246.6111584 332.7730608 239 369.5 239 C 406.2269392 239 436 246.6111584 436 256 C 436 265.3888416 406.2269392 273 369.5 273 C 332.7730608 273 303 265.3888416 303 256 Z" opacity="0.2"/></g><g transform="translate(-86,-94) scale(1,1)"><path fill="#ffffff" stroke="none" d="M 296 249 C 296 239.6111584 325.7730608 232 362.5 232 C 399.2269392 232 429 239.6111584 429 249 C 429 258.3888416 399.2269392 266 362.5 266 C 325.7730608 266 296 258.3888416 296 249 Z"/></g><g transform="translate(-86,-94) scale(1,1)"><path fill="none" stroke="#000000" d="M 296 249 C 296 239.6111584 325.7730608 232 362.5 232 C 399.2269392 232 429 239.6111584 429 249 C 429 258.3888416 399.2269392 266 362.5 266 C 325.7730608 266 296 258.3888416 296 249 Z" stroke-miterlimit="10"/></g><g transform="translate(-86,-94) scale(1,1)"><g><path fill="none" stroke="none"/><text fill="#000000" stroke="none" font-family="Arial" font-size="13px" font-style="normal" font-weight="bold" text-decoration="none" x="319.88818359375" y="256">로또 번호 생성</text></g></g><g transform="translate(-86,-94) scale(1,1)"><path fill="#C0C0C0" stroke="none" d="M 543 192 C 543 182.6111584 565.6096176 175 593.5 175 C 621.3903824 175 644 182.6111584 644 192 C 644 201.3888416 621.3903824 209 593.5 209 C 565.6096176 209 543 201.3888416 543 192 Z" opacity="0.2"/></g><g transform="translate(-86,-94) scale(1,1)"><path fill="#ffffff" stroke="none" d="M 536 185 C 536 175.6111584 558.6096176 168 586.5 168 C 614.3903824 168 637 175.6111584 637 185 C 637 194.3888416 614.3903824 202 586.5 202 C 558.6096176 202 536 194.3888416 536 185 Z"/></g><g transform="translate(-86,-94) scale(1,1)"><path fill="none" stroke="#000000" d="M 536 185 C 536 175.6111584 558.6096176 168 586.5 168 C 614.3903824 168 637 175.6111584 637 185 C 637 194.3888416 614.3903824 202 586.5 202 C 558.6096176 202 536 194.3888416 536 185 Z" stroke-miterlimit="10"/></g><g transform="translate(-86,-94) scale(1,1)"><g><path fill="none" stroke="none"/><text fill="#000000" stroke="none" font-family="Arial" font-size="13px" font-style="normal" font-weight="bold" text-decoration="none" x="573.5" y="192">자동</text></g></g><g transform="translate(-86,-94) scale(1,1)"><path fill="#C0C0C0" stroke="none" d="M 519 312 C 519 302.6111584 541.6096176 295 569.5 295 C 597.3903824 295 620 302.6111584 620 312 C 620 321.3888416 597.3903824 329 569.5 329 C 541.6096176 329 519 321.3888416 519 312 Z" opacity="0.2"/></g><g transform="translate(-86,-94) scale(1,1)"><path fill="#ffffff" stroke="none" d="M 512 305 C 512 295.6111584 534.6096176 288 562.5 288 C 590.3903824 288 613 295.6111584 613 305 C 613 314.3888416 590.3903824 322 562.5 322 C 534.6096176 322 512 314.3888416 512 305 Z"/></g><g transform="translate(-86,-94) scale(1,1)"><path fill="none" stroke="#000000" d="M 512 305 C 512 295.6111584 534.6096176 288 562.5 288 C 590.3903824 288 613 295.6111584 613 305 C 613 314.3888416 590.3903824 322 562.5 322 C 534.6096176 322 512 314.3888416 512 305 Z" stroke-miterlimit="10"/></g><g transform="translate(-86,-94) scale(1,1)"><g><path fill="none" stroke="none"/><text fill="#000000" stroke="none" font-family="Arial" font-size="13px" font-style="normal" font-weight="bold" text-decoration="none" x="543" y="312">반자동</text></g></g><g transform="translate(-86,-94) scale(1,1)"><path fill="none" stroke="#000000" d="M 535 200 L 425 231" stroke-miterlimit="10"/></g><g transform="translate(-86,-94) scale(1,1)"><path fill="#FFFFFF" stroke="none" d="M 442.27963421578244 217.38331019047726 L 425 231 L 446.84700023203015 233.59009282877557"/></g><g transform="translate(-86,-94) scale(1,1)"><path fill="none" stroke="#000000" d="M 442.27963421578244 217.38331019047726 L 425 231 L 446.84700023203015 233.59009282877557 L 442.27963421578244 217.38331019047726" stroke-miterlimit="10"/></g><g transform="translate(-86,-94) scale(1,1)"><path fill="none" stroke="#000000" d="M 511 291 L 426 267" stroke-miterlimit="10"/></g><g transform="translate(-86,-94) scale(1,1)"><path fill="#FFFFFF" stroke="none" d="M 447.8482805379665 264.4207292630834 L 426 267 L 443.272887154252 280.6252474970724"/></g><g transform="translate(-86,-94) scale(1,1)"><path fill="none" stroke="#000000" d="M 447.8482805379665 264.4207292630834 L 426 267 L 443.272887154252 280.6252474970724 L 447.8482805379665 264.4207292630834" stroke-miterlimit="10"/></g><g transform="translate(-86,-94) scale(1,1)"><path fill="#C0C0C0" stroke="none" d="M 287 416 C 287 406.6111584 316.7730608 399 353.5 399 C 390.2269392 399 420 406.6111584 420 416 C 420 425.3888416 390.2269392 433 353.5 433 C 316.7730608 433 287 425.3888416 287 416 Z" opacity="0.2"/></g><g transform="translate(-86,-94) scale(1,1)"><path fill="#ffffff" stroke="none" d="M 280 409 C 280 399.6111584 309.7730608 392 346.5 392 C 383.2269392 392 413 399.6111584 413 409 C 413 418.3888416 383.2269392 426 346.5 426 C 309.7730608 426 280 418.3888416 280 409 Z"/></g><g transform="translate(-86,-94) scale(1,1)"><path fill="none" stroke="#000000" d="M 280 409 C 280 399.6111584 309.7730608 392 346.5 392 C 383.2269392 392 413 399.6111584 413 409 C 413 418.3888416 383.2269392 426 346.5 426 C 309.7730608 426 280 418.3888416 280 409 Z" stroke-miterlimit="10"/></g><g transform="translate(-86,-94) scale(1,1)"><g><path fill="none" stroke="none"/><text fill="#000000" stroke="none" font-family="Arial" font-size="13px" font-style="normal" font-weight="bold" text-decoration="none" x="303.88818359375" y="416">당첨 번호 입력</text></g></g><g transform="translate(-86,-94) scale(1,1)"><path fill="#C0C0C0" stroke="none" d="M 303 568 C 303 558.6111584 325.6096176 551 353.5 551 C 381.3903824 551 404 558.6111584 404 568 C 404 577.3888416 381.3903824 585 353.5 585 C 325.6096176 585 303 577.3888416 303 568 Z" opacity="0.2"/></g><g transform="translate(-86,-94) scale(1,1)"><path fill="#ffffff" stroke="none" d="M 296 561 C 296 551.6111584 318.6096176 544 346.5 544 C 374.3903824 544 397 551.6111584 397 561 C 397 570.3888416 374.3903824 578 346.5 578 C 318.6096176 578 296 570.3888416 296 561 Z"/></g><g transform="translate(-86,-94) scale(1,1)"><path fill="none" stroke="#000000" d="M 296 561 C 296 551.6111584 318.6096176 544 346.5 544 C 374.3903824 544 397 551.6111584 397 561 C 397 570.3888416 374.3903824 578 346.5 578 C 318.6096176 578 296 570.3888416 296 561 Z" stroke-miterlimit="10"/></g><g transform="translate(-86,-94) scale(1,1)"><g><path fill="none" stroke="none"/><text fill="#000000" stroke="none" font-family="Arial" font-size="13px" font-style="normal" font-weight="bold" text-decoration="none" x="318.694091796875" y="568">당첨 확인</text></g></g><g transform="translate(-86,-94) scale(1,1)"><path fill="none" stroke="#000000" d="M 346 543 L 346 427" stroke-miterlimit="10" stroke-dasharray="3"/></g><g transform="translate(-86,-94) scale(1,1)"><path fill="none" stroke="#000000" d="M 350.209517756016 437.16267485762415 L 346 427 L 341.790482243984 437.16267485762415" stroke-miterlimit="10"/></g><g transform="translate(-86,-94) scale(1,1)"><g><path fill="none" stroke="none"/><text fill="#000000" stroke="none" font-family="Arial" font-size="13px" font-style="normal" font-weight="normal" text-decoration="none" x="288.5" y="490.5">«include»</text></g></g><g transform="translate(-86,-94) scale(1,1)"><path fill="#C0C0C0" stroke="none" d="M 447 376 C 447 366.6111584 469.6096176 359 497.5 359 C 525.3903824 359 548 366.6111584 548 376 C 548 385.3888416 525.3903824 393 497.5 393 C 469.6096176 393 447 385.3888416 447 376 Z" opacity="0.2"/></g><g transform="translate(-86,-94) scale(1,1)"><path fill="#ffffff" stroke="none" d="M 440 369 C 440 359.6111584 462.6096176 352 490.5 352 C 518.3903824 352 541 359.6111584 541 369 C 541 378.3888416 518.3903824 386 490.5 386 C 462.6096176 386 440 378.3888416 440 369 Z"/></g><g transform="translate(-86,-94) scale(1,1)"><path fill="none" stroke="#000000" d="M 440 369 C 440 359.6111584 462.6096176 352 490.5 352 C 518.3903824 352 541 359.6111584 541 369 C 541 378.3888416 518.3903824 386 490.5 386 C 462.6096176 386 440 378.3888416 440 369 Z" stroke-miterlimit="10"/></g><g transform="translate(-86,-94) scale(1,1)"><g><path fill="none" stroke="none"/><text fill="#000000" stroke="none" font-family="Arial" font-size="13px" font-style="normal" font-weight="bold" text-decoration="none" x="464.5" y="376">회차구분</text></g></g><g transform="translate(-86,-94) scale(1,1)"><path fill="none" stroke="#000000" d="M 471 351 L 381 267" stroke-miterlimit="10" stroke-dasharray="3"/></g><g transform="translate(-86,-94) scale(1,1)"><path fill="none" stroke="#000000" d="M 391.30170778424974 270.8567883955344 L 381 267 L 385.55724620396126 277.01156866012917" stroke-miterlimit="10"/></g><g transform="translate(-86,-94) scale(1,1)"><g><path fill="none" stroke="none"/><text fill="#000000" stroke="none" font-family="Arial" font-size="13px" font-style="normal" font-weight="normal" text-decoration="none" x="377.5" y="336.5">«include»</text></g></g><g transform="translate(-86,-94) scale(1,1)"><path fill="none" stroke="#000000" d="M 439 383 L 411 391" stroke-miterlimit="10" stroke-dasharray="3"/></g><g transform="translate(-86,-94) scale(1,1)"><path fill="none" stroke="#000000" d="M 419.61521178185615 384.1605463702305 L 411 391 L 421.92809871352966 392.2556506310878" stroke-miterlimit="10"/></g><g transform="translate(-86,-94) scale(1,1)"><g><path fill="none" stroke="none"/><text fill="#000000" stroke="none" font-family="Arial" font-size="13px" font-style="normal" font-weight="normal" text-decoration="none" x="405.5" y="421.5">«include»</text></g></g><g transform="translate(-86,-94) scale(1,1)"><path fill="none" stroke="#000000" d="M 147 368 L 330 267" stroke-miterlimit="10"/></g><g transform="translate(-86,-94) scale(1,1)"><path fill="none" stroke="#000000" d="M 323.13655293956685 275.5961092622553 L 330 267 L 319.0684428900916 268.22517719241404" stroke-miterlimit="10"/></g><g transform="translate(-86,-94) scale(1,1)"><path fill="none" stroke="#000000" d="M 147 404 L 323 543" stroke-miterlimit="10"/></g><g transform="translate(-86,-94) scale(1,1)"><path fill="none" stroke="#000000" d="M 312.41563954438226 540.0047848582187 L 323 543 L 317.63366388517613 533.3977900094438" stroke-miterlimit="10"/></g><g transform="translate(-86,-94) scale(1,1)"><path fill="#C0C0C0" stroke="none" d="M 303 128 C 303 118.6111584 325.6096176 111 353.5 111 C 381.3903824 111 404 118.6111584 404 128 C 404 137.3888416 381.3903824 145 353.5 145 C 325.6096176 145 303 137.3888416 303 128 Z" opacity="0.2"/></g><g transform="translate(-86,-94) scale(1,1)"><path fill="#ffffff" stroke="none" d="M 296 121 C 296 111.6111584 318.6096176 104 346.5 104 C 374.3903824 104 397 111.6111584 397 121 C 397 130.3888416 374.3903824 138 346.5 138 C 318.6096176 138 296 130.3888416 296 121 Z"/></g><g transform="translate(-86,-94) scale(1,1)"><path fill="none" stroke="#000000" d="M 296 121 C 296 111.6111584 318.6096176 104 346.5 104 C 374.3903824 104 397 111.6111584 397 121 C 397 130.3888416 374.3903824 138 346.5 138 C 318.6096176 138 296 130.3888416 296 121 Z" stroke-miterlimit="10"/></g><g transform="translate(-86,-94) scale(1,1)"><g><path fill="none" stroke="none"/><text fill="#000000" stroke="none" font-family="Arial" font-size="13px" font-style="normal" font-weight="bold" text-decoration="none" x="318.694091796875" y="128">번호 선택</text></g></g><g transform="translate(-86,-94) scale(1,1)"><path fill="none" stroke="#000000" d="M 360 231 L 348 139" stroke-miterlimit="10" stroke-dasharray="3"/></g><g transform="translate(-86,-94) scale(1,1)"><path fill="none" stroke="#000000" d="M 353.4885916117923 148.5328569756901 L 348 139 L 345.14027253626995 149.6217681594539" stroke-miterlimit="10"/></g><g transform="translate(-86,-94) scale(1,1)"><g><path fill="none" stroke="none"/><text fill="#000000" stroke="none" font-family="Arial" font-size="13px" font-style="normal" font-weight="normal" text-decoration="none" x="297.5" y="194.5">«extend»</text></g></g></g></svg>